<svg width="73" height="10" viewBox="0 0 73 10" fill="none" xmlns="http://www.w3.org/2000/svg">
<path d="M9.07524 9.90875H6.8463L3.11835 4.26469V9.90875H0.889404V0.758338H3.11835L6.8463 6.42846V0.758338H9.07524V9.90875Z" fill="#2F2A2F"/>
<path d="M15.0185 9.99999C14.1582 9.99999 13.3674 9.80012 12.6462 9.40039C11.9336 9.00066 11.3644 8.44451 10.9386 7.73194C10.5215 7.01068 10.3129 6.20253 10.3129 5.30747C10.3129 4.41242 10.5215 3.60861 10.9386 2.89604C11.3644 2.18347 11.9336 1.62732 12.6462 1.22759C13.3674 0.827857 14.1582 0.627991 15.0185 0.627991C15.8788 0.627991 16.6652 0.827857 17.3778 1.22759C18.099 1.62732 18.6639 2.18347 19.0723 2.89604C19.4894 3.60861 19.698 4.41242 19.698 5.30747C19.698 6.20253 19.4894 7.01068 19.0723 7.73194C18.6552 8.44451 18.0903 9.00066 17.3778 9.40039C16.6652 9.80012 15.8788 9.99999 15.0185 9.99999ZM15.0185 7.96657C15.7484 7.96657 16.3307 7.72325 16.7651 7.23662C17.2083 6.74999 17.4299 6.10694 17.4299 5.30747C17.4299 4.49932 17.2083 3.85627 16.7651 3.37833C16.3307 2.8917 15.7484 2.64838 15.0185 2.64838C14.2798 2.64838 13.6889 2.88735 13.2458 3.36529C12.8113 3.84323 12.594 4.49063 12.594 5.30747C12.594 6.11563 12.8113 6.76302 13.2458 7.24965C13.6889 7.7276 14.2798 7.96657 15.0185 7.96657Z" fill="#2F2A2F"/>
<path d="M27.5206 0.758338V2.5441H25.0961V9.90875H22.8671V2.5441H20.4427V0.758338H27.5206Z" fill="#2F2A2F"/>
<path d="M30.8682 2.5441V4.39504H33.8531V6.11563H30.8682V8.12298H34.2442V9.90875H28.6392V0.758338H34.2442V2.5441H30.8682Z" fill="#2F2A2F"/>
<path d="M41.231 5.21623C41.7611 5.3292 42.1869 5.59424 42.5084 6.01135C42.8299 6.41977 42.9907 6.88903 42.9907 7.41911C42.9907 8.18381 42.7213 8.7921 42.1825 9.24397C41.6525 9.68715 40.9095 9.90875 39.9536 9.90875H35.6912V0.758338H39.8102C40.74 0.758338 41.4656 0.97124 41.987 1.39704C42.5171 1.82284 42.7821 2.40072 42.7821 3.13067C42.7821 3.66944 42.6388 4.11696 42.352 4.47325C42.0739 4.82953 41.7003 5.07719 41.231 5.21623ZM37.9202 4.46021H39.3801C39.745 4.46021 40.0231 4.382 40.2143 4.22559C40.4142 4.06048 40.5141 3.82151 40.5141 3.50867C40.5141 3.19584 40.4142 2.95687 40.2143 2.79176C40.0231 2.62666 39.745 2.5441 39.3801 2.5441H37.9202V4.46021ZM39.5625 8.10995C39.9362 8.10995 40.223 8.02739 40.4228 7.86229C40.6314 7.68849 40.7357 7.44083 40.7357 7.11931C40.7357 6.79778 40.6271 6.54578 40.4098 6.36329C40.2013 6.1808 39.9101 6.08956 39.5365 6.08956H37.9202V8.10995H39.5625Z" fill="#2F2A2F"/>
<path d="M48.611 9.99999C47.7507 9.99999 46.9599 9.80012 46.2387 9.40039C45.5261 9.00066 44.9569 8.44451 44.5311 7.73194C44.114 7.01068 43.9055 6.20253 43.9055 5.30747C43.9055 4.41242 44.114 3.60861 44.5311 2.89604C44.9569 2.18347 45.5261 1.62732 46.2387 1.22759C46.9599 0.827857 47.7507 0.627991 48.611 0.627991C49.4713 0.627991 50.2578 0.827857 50.9703 1.22759C51.6916 1.62732 52.2564 2.18347 52.6648 2.89604C53.0819 3.60861 53.2905 4.41242 53.2905 5.30747C53.2905 6.20253 53.0819 7.01068 52.6648 7.73194C52.2477 8.44451 51.6829 9.00066 50.9703 9.40039C50.2578 9.80012 49.4713 9.99999 48.611 9.99999ZM48.611 7.96657C49.341 7.96657 49.9232 7.72325 50.3577 7.23662C50.8009 6.74999 51.0225 6.10694 51.0225 5.30747C51.0225 4.49932 50.8009 3.85627 50.3577 3.37833C49.9232 2.8917 49.341 2.64838 48.611 2.64838C47.8724 2.64838 47.2815 2.88735 46.8383 3.36529C46.4038 3.84323 46.1866 4.49063 46.1866 5.30747C46.1866 6.11563 46.4038 6.76302 46.8383 7.24965C47.2815 7.7276 47.8724 7.96657 48.611 7.96657Z" fill="#2F2A2F"/>
<path d="M58.8581 9.99999C57.9978 9.99999 57.207 9.80012 56.4858 9.40039C55.7732 9.00066 55.204 8.44451 54.7782 7.73194C54.3611 7.01068 54.1525 6.20253 54.1525 5.30747C54.1525 4.41242 54.3611 3.60861 54.7782 2.89604C55.204 2.18347 55.7732 1.62732 56.4858 1.22759C57.207 0.827857 57.9978 0.627991 58.8581 0.627991C59.7184 0.627991 60.5048 0.827857 61.2174 1.22759C61.9386 1.62732 62.5035 2.18347 62.9119 2.89604C63.329 3.60861 63.5376 4.41242 63.5376 5.30747C63.5376 6.20253 63.329 7.01068 62.9119 7.73194C62.4948 8.44451 61.9299 9.00066 61.2174 9.40039C60.5048 9.80012 59.7184 9.99999 58.8581 9.99999ZM58.8581 7.96657C59.588 7.96657 60.1702 7.72325 60.6047 7.23662C61.0479 6.74999 61.2695 6.10694 61.2695 5.30747C61.2695 4.49932 61.0479 3.85627 60.6047 3.37833C60.1702 2.8917 59.588 2.64838 58.8581 2.64838C58.1194 2.64838 57.5285 2.88735 57.0854 3.36529C56.6509 3.84323 56.4336 4.49063 56.4336 5.30747C56.4336 6.11563 56.6509 6.76302 57.0854 7.24965C57.5285 7.7276 58.1194 7.96657 58.8581 7.96657Z" fill="#2F2A2F"/>
<path d="M70.0827 9.90875L67.0065 5.86797V9.90875H64.7776V0.758338H67.0065V4.77305L70.0567 0.758338H72.6767L69.1312 5.2423L72.807 9.90875H70.0827Z" fill="#2F2A2F"/>
</svg>
